<?xml version="1.0" encoding="utf-8"?>
<!-- Generator: Adobe Illustrator 25.3.1, SVG Export Plug-In . SVG Version: 6.00 Build 0)  -->
<svg version="1.1" id="Layer_1" xmlns="http://www.w3.org/2000/svg" xmlns:xlink="http://www.w3.org/1999/xlink" x="0px" y="0px"
	 viewBox="0 0 660 400" style="enable-background:new 0 0 660 400;" xml:space="preserve">
<style type="text/css">
	.st0{fill:#A8CFF0;}
	.st1{fill:#F2F2F2;}
	.st2{fill:#D1EBFF;}
	.st3{fill:#F7F7F7;}
	.st4{opacity:0.5;fill:#FFFFFF;}
	.st5{fill:#FDFDFD;}
</style>
<g>
	<polygon class="st0" points="660,329.54 660,320.89 660,320.89 	"/>
	<polygon class="st1" points="0,307.61 85.24,258.77 0,210 	"/>
	<polygon class="st1" points="453.56,0 495.22,23.84 536.83,0 	"/>
	<polygon class="st2" points="660,0 660,320.89 660,320.89 660,0 660,0 	"/>
	<polygon class="st3" points="0,307.61 0,400 332.1,400 85.24,258.77 	"/>
	<polygon class="st3" points="536.83,0 495.22,23.84 660,118.17 660,0 	"/>
	<polygon class="st4" points="660,400 660,329.54 660,400 	"/>
	<polygon class="st3" points="0,0 0,210 85.24,258.77 495.22,23.84 453.56,0 	"/>
	<polygon class="st1" points="522.45,400 660,400 660,320.89 	"/>
	<polygon class="st2" points="660,118.17 495.22,23.84 85.24,258.77 332.1,400 522.45,400 660,320.89 	"/>
	<polygon class="st5" points="660,118.17 495.22,23.84 85.24,258.77 332.1,400 522.45,400 660,320.89 	"/>
</g>
</svg>
