<svg xmlns="http://www.w3.org/2000/svg" viewBox="0 0 73.2 73.2"><defs><style>.cls-1{fill:#e96b57;}.cls-2{fill:#fdb857;}.cls-3{fill:#0593a1;}.cls-4{fill:#1d1d1b;}</style></defs><g id="Layer_2" data-name="Layer 2"><g id="Layer_2-2" data-name="Layer 2"><path class="cls-1" d="M72.63,52.38v3.5H61.26a.27.27,0,0,0-.29.25v7.51H43.13V47.26a2.18,2.18,0,0,0-2.3-2H25.36l13.33-4.78s0,0,0,0l0,.17a.94.94,0,0,0,.07.22.8.8,0,0,0,.08.16,1.06,1.06,0,0,0,.11.21l.1.15.15.19.13.14.18.17.17.13.22.15.18.12.24.14.2.11.27.12.23.09.28.11.24.08.32.1.23.07.34.08.25.06.35.06.26,0,.38.05.24,0,.4,0,.24,0,.43,0,.21,0h1.28l.2,0,.43,0,.24,0,.4,0,.26,0,.36-.05.26,0,.35-.06.25-.06.34-.08.24-.07.31-.1.24-.08.29-.11.22-.09.27-.12.2-.11a2,2,0,0,0,.25-.14l.18-.12L52,42l.16-.13.18-.17.13-.14a.9.9,0,0,0,.15-.19.72.72,0,0,0,.11-.15,2.25,2.25,0,0,0,.12-.21.76.76,0,0,0,.06-.16,1,1,0,0,0,.08-.22,1.09,1.09,0,0,0,0-.17.06.06,0,0,1,0,0l13.86,5A7.45,7.45,0,0,1,72.63,52.38Z"/><path class="cls-2" d="M61.52,13.33a2.5,2.5,0,0,1,.71,1.77,2.42,2.42,0,0,1-1,2,.23.23,0,0,0-.07.33,2.47,2.47,0,0,1,.47,1.46A2.88,2.88,0,0,1,60.68,21a2,2,0,0,0-1-.73.92.92,0,0,0-.27-.08l-.07,0h0a1,1,0,0,0-.18,0,1.45,1.45,0,0,0-.66.17.28.28,0,0,0-.17.09h-.63l0-4.48a3.73,3.73,0,0,0-.09-.79.23.23,0,0,0-.14-.18.31.31,0,0,0-.25,0,10.54,10.54,0,0,1-4.14.87A19.08,19.08,0,0,1,46,13.92l-1.32-.53-.1,0L44,13.14l-.17-.05-.53-.19-.16-.05-.5-.15-.19-.06L42,12.51l-.18,0-.53-.11-.17,0-.52-.07-.18,0-.54,0H39a3.78,3.78,0,0,0-.47.06H38.4l-.17,0c-.15,0-.3.06-.49.1l-.09,0-.16,0-.48.15-.09,0-.17.05-.39.16-.18.08L36,13l-.37.2-.18.1-.21.11-.26.17-.22.15-.28.18a.23.23,0,0,0-.07.1A4,4,0,0,0,34,15.89l0,4.48H33.4a.19.19,0,0,0-.08,0,.56.56,0,0,0-.16-.15l-.28-.09-.08,0a2.19,2.19,0,0,0-.36,0h-.23a1.82,1.82,0,0,0-.5.16l-.12.07a1.69,1.69,0,0,0-.31.21l-.14.14a2,2,0,0,0-.23.27,2,2,0,0,0-.12.19.55.55,0,0,0-.09.14,3.38,3.38,0,0,1-.9-2.4A4.28,4.28,0,0,1,30,17.71a.22.22,0,0,0-.06-.24,3.12,3.12,0,0,1-1-2.37,3.19,3.19,0,0,1,.91-2.28.22.22,0,0,0,.05-.28,3.38,3.38,0,0,1-.43-1.67,2.83,2.83,0,0,1,2-2.87.34.34,0,0,0,.21-.3c0-2,1.31-3.55,2.94-3.55a2.43,2.43,0,0,1,1,.24.39.39,0,0,0,.24,0A.26.26,0,0,0,36,4.25a4.22,4.22,0,0,1,3.93-2.34,4.8,4.8,0,0,1,2,.43.32.32,0,0,0,.35-.07A6.11,6.11,0,0,1,46.73.5C49,.5,51,1.53,51.8,3.08a.31.31,0,0,0,.28.15l.15,0h.18a4.17,4.17,0,0,1,4,2.46.29.29,0,0,0,.35.15,2.69,2.69,0,0,1,1.52,0,2.78,2.78,0,0,1,1.59,3.32.26.26,0,0,0,.21.28,2.52,2.52,0,0,1,1.64,2.49,2.89,2.89,0,0,1-.24,1.15A.23.23,0,0,0,61.52,13.33Z"/><path class="cls-2" d="M57.69,20.87h.57c-.11,1.47-.32,3.82-.59,6.7v.12a14.51,14.51,0,0,1-2.24,5.39c-1.15,1.5-2,2.53-2.77,3.37l0,0a8.92,8.92,0,0,1-1,.9,6.22,6.22,0,0,1-3.42,1.27,20.13,20.13,0,0,1-2.25.1h-.12a19.89,19.89,0,0,1-2.25-.1,6.39,6.39,0,0,1-4.42-2.17,38.93,38.93,0,0,1-2.81-3.4,14.56,14.56,0,0,1-2.24-5.36s0-.28-.07-.65c-.15-1.34-.49-4.35-.65-6.2H34a46.62,46.62,0,0,0,1.15,7A5.43,5.43,0,0,0,39.48,31a2.54,2.54,0,0,0,1.23-.3,12.22,12.22,0,0,1,5.12-1.35H46a12.25,12.25,0,0,1,5.12,1.35,2.57,2.57,0,0,0,1.23.3,5.43,5.43,0,0,0,4.32-3.09,48.42,48.42,0,0,0,1-6.65Zm-8,11.21a1.69,1.69,0,0,0-1.85-1.46H44a1.7,1.7,0,0,0-1.86,1.46A1.7,1.7,0,0,0,44,33.54h3.84A1.69,1.69,0,0,0,49.66,32.08Z"/><path class="cls-3" d="M43.11,71.05v0a1.69,1.69,0,0,1-.33,1,1.58,1.58,0,0,1-1.25.61H2.15a1.52,1.52,0,0,1-1.23-.61,1.58,1.58,0,0,1-.35-1v-.7H43.11Z"/><path class="cls-3" d="M42.56,63.89V67.2a1.65,1.65,0,0,1-1.73,1.53h-38A1.65,1.65,0,0,1,1.12,67.2V47.26a1.65,1.65,0,0,1,1.73-1.53h38a1.65,1.65,0,0,1,1.73,1.53ZM24.91,57.23a2.91,2.91,0,0,0-3.07-2.71,2.73,2.73,0,1,0,0,5.42A2.91,2.91,0,0,0,24.91,57.23Z"/><path class="cls-4" d="M44,31.12c-.71,0-1.3.43-1.3,1s.59,1,1.3,1h3.84c.71,0,1.29-.43,1.29-1s-.58-1-1.29-1Zm0,2.42a1.7,1.7,0,0,1-1.86-1.46A1.7,1.7,0,0,1,44,30.62h3.84a1.69,1.69,0,0,1,1.85,1.46,1.69,1.69,0,0,1-1.85,1.46Z"/><path class="cls-4" d="M18.78,57.23a2.91,2.91,0,0,1,3.06-2.71,2.73,2.73,0,1,1,0,5.42A2.91,2.91,0,0,1,18.78,57.23ZM21.84,55a2.23,2.23,0,1,0,0,4.42,2.23,2.23,0,1,0,0-4.42Z"/><path class="cls-4" d="M48.24,19.77a.58.58,0,0,0-.62.54V22a2.82,2.82,0,0,0,3,2.62h1.32a2.69,2.69,0,0,0,2.83-2.5V20.22a.49.49,0,0,0-.52-.45Zm13.3,43.87H72.63V56.38H61.54ZM58.85,20.71c-.12,1.45-.33,3.87-.6,6.85a1.63,1.63,0,0,0,.36-.07,4,4,0,0,0,2.09-3.11,4.49,4.49,0,0,0-.18-2.57,1.66,1.66,0,0,0-.18-.38,2.2,2.2,0,0,0-.8-.73l-.17-.06-.17,0A.66.66,0,0,0,58.85,20.71Zm-19,49.18v-.66h-36v.66Zm3.26.5H.57v.7a1.58,1.58,0,0,0,.35,1,1.52,1.52,0,0,0,1.23.61H41.53a1.58,1.58,0,0,0,1.25-.61,1.69,1.69,0,0,0,.33-1v-.7ZM3.55,68.73H40.83a1.65,1.65,0,0,0,1.73-1.53V47.26a1.65,1.65,0,0,0-1.73-1.53h-38a1.65,1.65,0,0,0-1.73,1.53V67.2a1.65,1.65,0,0,0,1.73,1.53ZM39,41.25A1.06,1.06,0,0,1,38.9,41a.8.8,0,0,1-.08-.16.94.94,0,0,1-.07-.22l0-.17s0,0,0,0L25.36,45.23H40.83a2.18,2.18,0,0,1,2.3,2V63.64H61V56.13a.27.27,0,0,1,.29-.25H72.63v-3.5a7.45,7.45,0,0,0-5.68-7l-13.86-5a.06.06,0,0,0,0,0,1.09,1.09,0,0,1,0,.17,1,1,0,0,1-.08.22.76.76,0,0,1-.06.16,2.25,2.25,0,0,1-.12.21.72.72,0,0,1-.11.15.9.9,0,0,1-.15.19l-.13.14-.18.17L52,42l-.22.15-.18.12a2,2,0,0,1-.25.14l-.2.11-.27.12-.22.09-.29.11-.24.08-.31.1-.24.07-.34.08-.25.06-.35.06-.26,0-.36.05-.26,0-.4,0-.24,0-.43,0-.2,0H45.25l-.21,0-.43,0-.24,0-.4,0-.24,0-.38-.05-.26,0-.35-.06-.25-.06-.34-.08-.23-.07L41.6,43l-.24-.08-.28-.11-.23-.09-.27-.12-.2-.11-.24-.14L40,42.18,39.74,42l-.17-.13-.18-.17-.13-.14-.15-.19Zm1.25-3.16L40,37.87a1.56,1.56,0,0,1-.19-.14c-.13-.09-.24-.19-.37-.3l-.14-.12s0,0,0,0v2.8c0,1.95,3.36,3,6.67,3s6.66-1,6.66-3v-2.8l0,0-.16.14c-.12.1-.23.2-.34.28l-.2.15-.31.21-.22.13L51,38.4l-.22.1c-.11.06-.23.1-.34.15l-.23.08a2.29,2.29,0,0,1-.37.12l-.21.06-.49.11-.15,0-.7.1a21.73,21.73,0,0,1-2.34.11h-.08a21.93,21.93,0,0,1-2.35-.11l-.69-.1-.16,0-.47-.11L42,38.85c-.12,0-.25-.07-.37-.12l-.23-.08L41,38.5l-.21-.1-.32-.18ZM37,22a2.82,2.82,0,0,0,3,2.62h1.33a2.68,2.68,0,0,0,2.83-2.5V20.22a.49.49,0,0,0-.53-.45h-6a.58.58,0,0,0-.61.54Zm-2.46-1.17a40.72,40.72,0,0,0,1.13,6.84,4.9,4.9,0,0,0,3.77,2.74,1.91,1.91,0,0,0,.93-.22,12.84,12.84,0,0,1,5.41-1.43l0,.26.07-.25H46a12.78,12.78,0,0,1,5.4,1.43,2,2,0,0,0,.94.22,4.94,4.94,0,0,0,3.78-2.73,50,50,0,0,0,1-6.56l0-.29H55.31v1.29a3.22,3.22,0,0,1-3.4,3H50.59A3.36,3.36,0,0,1,47.05,22V20.87H44.72v1.29a3.21,3.21,0,0,1-3.39,3H40A3.34,3.34,0,0,1,36.48,22V20.87Zm0-.5h1.95v-.06a1.11,1.11,0,0,1,1.17-1h6a1,1,0,0,1,1.09.95v.15h2.33v-.06a1.12,1.12,0,0,1,1.19-1h6a1,1,0,0,1,1.09.95v.15h1.86l0-4.49c0-.12,0-.25,0-.37a11,11,0,0,1-4,.78,19.36,19.36,0,0,1-7.36-1.91l-1.34-.53-.1,0-.53-.2-.17-.06-.49-.17L43,13.32l-.49-.15-.19-.05a3.45,3.45,0,0,0-.46-.12L41.66,13l-.47-.09-.2,0-.45-.06-.21,0-.45,0a1.7,1.7,0,0,0-.23,0H39l-.44,0h-.09l-.14,0c-.14,0-.26.06-.4.09l-.28.06-.39.13-.15.05-.14,0-.36.15-.19.09-.15.06-.35.19-.18.1-.18.1c-.08,0-.16.1-.24.15l-.24.16-.19.12a3.69,3.69,0,0,0-.36,1.59Zm-1.14.5c.16,1.85.5,4.86.65,6.2.05.37.07.6.07.65a14.56,14.56,0,0,0,2.24,5.36,38.93,38.93,0,0,0,2.81,3.4,6.39,6.39,0,0,0,4.42,2.17,19.89,19.89,0,0,0,2.25.1H46a20.13,20.13,0,0,0,2.25-.1,6.22,6.22,0,0,0,3.42-1.27,8.92,8.92,0,0,0,1-.9l0,0c.79-.84,1.62-1.87,2.77-3.37a14.51,14.51,0,0,0,2.24-5.39v-.12c.27-2.88.48-5.23.59-6.7h-.57l0,.34a48.42,48.42,0,0,1-1,6.65A5.43,5.43,0,0,1,52.3,31a2.57,2.57,0,0,1-1.23-.3A12.25,12.25,0,0,0,46,29.3h-.12a12.22,12.22,0,0,0-5.12,1.35,2.54,2.54,0,0,1-1.23.3,5.43,5.43,0,0,1-4.32-3.09,46.62,46.62,0,0,1-1.15-7h-.62ZM31,7.58a3.78,3.78,0,0,1,3.5-3.93,3.06,3.06,0,0,1,1,.18,4.87,4.87,0,0,1,4.34-2.42,5.44,5.44,0,0,1,2,.39A6.82,6.82,0,0,1,46.73,0c2.41,0,4.6,1.08,5.5,2.71h.18a4.79,4.79,0,0,1,4.42,2.58,3.29,3.29,0,0,1,1.63.08,3.22,3.22,0,0,1,2,3.67,3,3,0,0,1,1.81,2.89,3.78,3.78,0,0,1-.21,1.19,3,3,0,0,1,.74,2,2.85,2.85,0,0,1-1,2.26,2.91,2.91,0,0,1,.43,1.54,3.29,3.29,0,0,1-1.23,2.51c0,.08.09.15.12.24a5.06,5.06,0,0,1,.2,2.81A4.44,4.44,0,0,1,58.81,28a1.91,1.91,0,0,1-.62.1h0a14.6,14.6,0,0,1-2.25,5.3,41.93,41.93,0,0,1-2.79,3.38v3.18l14,5a8,8,0,0,1,6.06,7.43V63.89a.27.27,0,0,1-.28.25H43.13V67.2a2.18,2.18,0,0,1-2.3,2h-.42v.66h3.1a.26.26,0,0,1,.17.24v1a2.11,2.11,0,0,1-.44,1.25,2.16,2.16,0,0,1-1.71.82H2.15a2.19,2.19,0,0,1-1.71-.82A2.14,2.14,0,0,1,0,71.09v-1a.26.26,0,0,1,.28-.25h3v-.66H2.85a2.18,2.18,0,0,1-2.3-2V47.26a2.18,2.18,0,0,1,2.3-2h21l.11,0a6.63,6.63,0,0,1,.67-.25l14-5V36.74c-.77-.81-1.57-1.82-2.78-3.38a14.4,14.4,0,0,1-2.25-5.31h-.22a2,2,0,0,1-.63-.1,4.46,4.46,0,0,1-2.45-3.5,5.33,5.33,0,0,1,.16-2.66,3.72,3.72,0,0,1-1.25-2.9,4.25,4.25,0,0,1,.16-1.18,3.75,3.75,0,0,1-.13-5.11,3.78,3.78,0,0,1-.41-1.74A3.38,3.38,0,0,1,31,7.58Zm2.44,19.54c-.16-1.4-.52-4.63-.68-6.46l-.06,0a1.38,1.38,0,0,0-.44,0h0a1.13,1.13,0,0,0-.24.08l-.13.05a1.37,1.37,0,0,0-.21.15.54.54,0,0,0-.12.09,1.69,1.69,0,0,0-.2.25.76.76,0,0,0-.08.11,2.84,2.84,0,0,0-.24.46,4.84,4.84,0,0,0-.17,2.57A4,4,0,0,0,33,27.49a1.31,1.31,0,0,0,.55.06C33.51,27.44,33.5,27.3,33.48,27.12Zm-.16-6.72a.19.19,0,0,1,.08,0H34l0-4.48a4,4,0,0,1,.45-1.84.23.23,0,0,1,.07-.1l.28-.18.22-.15.26-.17.21-.11.18-.1L36,13l.18-.08.18-.08.39-.16.17-.05.09,0,.48-.15.16,0,.09,0c.19,0,.34-.08.49-.1l.17,0h.08a3.78,3.78,0,0,1,.47-.06h.9l.54,0,.18,0,.52.07.17,0,.53.11.18,0,.52.13.19.06.5.15.16.05.53.19.17.05.55.21.1,0,1.32.53a19.08,19.08,0,0,0,7.15,1.87,10.54,10.54,0,0,0,4.14-.87.31.31,0,0,1,.25,0,.23.23,0,0,1,.14.18,3.73,3.73,0,0,1,.09.79l0,4.48h.63a.28.28,0,0,1,.17-.09,1.45,1.45,0,0,1,.66-.17,1,1,0,0,1,.18,0h0l.07,0a.92.92,0,0,1,.27.08,2,2,0,0,1,1,.73,2.88,2.88,0,0,0,.93-2.06,2.47,2.47,0,0,0-.47-1.46.23.23,0,0,1,.07-.33,2.42,2.42,0,0,0,1-2,2.5,2.5,0,0,0-.71-1.77.23.23,0,0,1-.06-.26,2.89,2.89,0,0,0,.24-1.15,2.52,2.52,0,0,0-1.64-2.49.26.26,0,0,1-.21-.28,2.78,2.78,0,0,0-1.59-3.32,2.69,2.69,0,0,0-1.52,0,.29.29,0,0,1-.35-.15,4.17,4.17,0,0,0-4-2.46h-.18l-.15,0a.31.31,0,0,1-.28-.15C51,1.53,49,.5,46.73.5a6.11,6.11,0,0,0-4.52,1.77.32.32,0,0,1-.35.07,4.8,4.8,0,0,0-2-.43A4.22,4.22,0,0,0,36,4.25a.26.26,0,0,1-.16.15.39.39,0,0,1-.24,0,2.43,2.43,0,0,0-1-.24c-1.63,0-2.94,1.59-2.94,3.55a.34.34,0,0,1-.21.3,2.83,2.83,0,0,0-2,2.87,3.38,3.38,0,0,0,.43,1.67.22.22,0,0,1-.05.28,3.19,3.19,0,0,0-.91,2.28,3.12,3.12,0,0,0,1,2.37.22.22,0,0,1,.06.24,4.28,4.28,0,0,0-.18,1.19,3.38,3.38,0,0,0,.9,2.4.55.55,0,0,1,.09-.14,2,2,0,0,1,.12-.19,2,2,0,0,1,.23-.27l.14-.14a1.69,1.69,0,0,1,.31-.21l.12-.07a1.82,1.82,0,0,1,.5-.16h.23a2.19,2.19,0,0,1,.36,0l.08,0,.28.09A.56.56,0,0,1,33.32,20.4Z"/></g></g></svg>