<svg xmlns="http://www.w3.org/2000/svg" viewBox="0 0 70.83 70.83"><defs><style>.cls-1{fill:#e96b57;}.cls-2{fill:#ff9180;}.cls-3{fill:#0593a1;}.cls-4{fill:#fdb857;}.cls-5{fill:#5ac6d1;}.cls-6{fill:#1d1d1b;}</style></defs><g id="Layer_2" data-name="Layer 2"><g id="Layer_2-2" data-name="Layer 2"><path class="cls-1" d="M70.07,67.22a1.25,1.25,0,0,1,0,1.16,1.85,1.85,0,0,1-1.07.85l-3.08,1a2,2,0,0,1-2.43-.89l-8.32-19.7.08,0,4.67-1.5.08,0Z"/><path class="cls-1" d="M64.23,30.19c2.35,5,.35,10.66-4.86,13.84a15.1,15.1,0,0,1-3.32,1.53,16.91,16.91,0,0,1-3.72.73,15,15,0,0,1-1.51.07,16.64,16.64,0,0,1-8.12-2.08,12.61,12.61,0,0,1-5.3-5.46c-2.89-6.1.77-13,8.18-15.37a16.76,16.76,0,0,1,5.19-.81,17.34,17.34,0,0,1,6.47,1.27v0h0l.1,0A13,13,0,0,1,64.23,30.19ZM57.72,41.87c4-2.51,5.43-6.93,3.62-10.75a9.66,9.66,0,0,0-3.62-4,13.5,13.5,0,0,0-11-1.33,10.62,10.62,0,0,0-6.24,4.94,7.77,7.77,0,0,0-.19,7.13c.12.25.26.5.4.74a10.68,10.68,0,0,0,1.14,1.51,12.4,12.4,0,0,0,9,3.68,13.39,13.39,0,0,0,4.09-.63A12.17,12.17,0,0,0,57.72,41.87Z"/><path class="cls-2" d="M60.31,46.53a.76.76,0,0,1-.37,1,.63.63,0,0,1-.23.12l-4.66,1.5a.84.84,0,0,1-.3,0h-.09a1.07,1.07,0,0,1-1-.53l-.89-1.91c.36,0,.71-.11,1.06-.17s.42,0,.61-.09c.62-.13,1.21-.28,1.8-.46A16.27,16.27,0,0,0,58,45.37l.54-.27c.31-.16.63-.3.92-.48Z"/><path class="cls-3" d="M55.93,54.87l0,.49L5.5,58.46.63,4.74,6,4.41V54.62a.27.27,0,0,0,.3.25Z"/><rect class="cls-3" x="48.11" y="9.42" width="2.82" height="10.06"/><path class="cls-4" d="M50.28,31.46,49.86,35l-.72-.32a.35.35,0,0,0-.41.09L45.6,39.3l-3.41.41-.11-.13c-.2-.24-.39-.48-.56-.73l-.09-.14,3.2-.39a.37.37,0,0,0,.22-.12l2.72-3.93a.25.25,0,0,0,0-.19.26.26,0,0,0-.15-.16l-.5-.23Z"/><polygon class="cls-4" points="47.51 9.17 47.51 19.48 44.69 19.48 44.69 7.1 44.69 6.17 47.51 6.17 47.51 9.17"/><rect class="cls-5" x="41.26" y="7.35" width="2.83" height="12.13"/><rect class="cls-1" x="37.82" y="11.97" width="2.83" height="7.51"/><path class="cls-4" d="M29.56,17.49a6.68,6.68,0,0,1-2.16,7.14L21,19.35V19l.28-7.08a9.94,9.94,0,0,1,1.79.23A8.57,8.57,0,0,1,29.56,17.49Z"/><path class="cls-1" d="M20.57,19.72,27,25A10.28,10.28,0,0,1,20.68,27a11.19,11.19,0,0,1-2.38-.26,8.54,8.54,0,0,1-6.5-5.36c-.07-.18-.11-.36-.16-.53l5.63-.74Z"/><path class="cls-3" d="M20.66,11.88l-.27,7.36-4.32.56-4.51.59a6.64,6.64,0,0,1,0-1.94,6.83,6.83,0,0,1,1.14-2.77,8.55,8.55,0,0,1,1.48-1.59,8.46,8.46,0,0,1,.84-.6l.18-.12.09,0c.22-.12.42-.24.65-.35l.32-.15c.23-.11.48-.21.73-.3l.11,0,.14-.05a9.75,9.75,0,0,1,1-.29l.23,0c.28-.06.56-.1.84-.14l.29,0h.06l.76,0h.23Z"/><path class="cls-6" d="M42.54,46.33H29.06a.25.25,0,1,1,0-.5H42.54a.26.26,0,1,1,0,.5Z"/><path class="cls-6" d="M40.88,48.18H29.06a.25.25,0,1,1,0-.5H47.7a.25.25,0,1,1,0,.5Z"/><path class="cls-6" d="M40.81,49.5c-.17,0-.27-.17-.22-.31a.3.3,0,0,1,.29-.18H41l3.84.85L41,50.72h-.09a.31.31,0,0,1-.29-.19c-.05-.13,0-.27.22-.3l.22-.05,1.44-.32Z"/><path class="cls-6" d="M42.19,39.71l3.41-.41,3.13-4.53a.35.35,0,0,1,.41-.09l.72.32.42-3.54-3.34,2.23.5.23a.26.26,0,0,1,.15.16.25.25,0,0,1,0,.19L44.85,38.2a.37.37,0,0,1-.22.12l-3.2.39.09.14c.17.25.36.49.56.73ZM41,31a7.35,7.35,0,0,0-.17,6.75c.09.18.19.36.29.53l3.26-.4,2.5-3.6L46.24,34a.23.23,0,0,1-.15-.2.21.21,0,0,1,.1-.22l4.28-2.84a.33.33,0,0,1,.32,0,.23.23,0,0,1,.16.24l-.52,4.5a.26.26,0,0,1-.17.2.34.34,0,0,1-.28,0l-.87-.39-3.06,4.42a.29.29,0,0,1-.22.12l-3.19.4a11.87,11.87,0,0,0,8.19,3.15,12.67,12.67,0,0,0,3.87-.6,11.45,11.45,0,0,0,2.65-1.24c3.73-2.38,5.14-6.57,3.43-10.18a9.12,9.12,0,0,0-3.43-3.76,12.39,12.39,0,0,0-6.57-1.85,12.56,12.56,0,0,0-3.86.6A10,10,0,0,0,41,31Zm-.74,6.93a7.77,7.77,0,0,1,.19-7.13,10.62,10.62,0,0,1,6.24-4.94,13.5,13.5,0,0,1,11,1.33,9.66,9.66,0,0,1,3.62,4c1.81,3.82.33,8.24-3.62,10.75a12.17,12.17,0,0,1-2.8,1.32,13.39,13.39,0,0,1-4.09.63,12.4,12.4,0,0,1-9-3.68,10.68,10.68,0,0,1-1.14-1.51C40.53,38.39,40.39,38.14,40.27,37.89Z"/><path class="cls-6" d="M39.46,44.23a.29.29,0,0,1-.31.25H29.06a.25.25,0,1,1,0-.5H39.15A.29.29,0,0,1,39.46,44.23Z"/><path class="cls-6" d="M38.6,3.21a.28.28,0,0,1,.3.25.29.29,0,0,1-.3.25H11.84a.28.28,0,0,1-.3-.25.27.27,0,0,1,.3-.25Z"/><path class="cls-6" d="M48.11,19.48h2.82V9.42H48.11Zm-.6-13.31H44.69V19.48h2.82V6.17ZM41.26,19.48h2.82V7.35H41.26Zm-3.44,0h2.83V12H37.82ZM41,20H37.52a.28.28,0,0,1-.3-.25v-8a.28.28,0,0,1,.3-.25h3.13V7.1a.27.27,0,0,1,.3-.25h3.13V5.92a.28.28,0,0,1,.31-.25h3.42a.27.27,0,0,1,.3.25v3h3.12a.27.27,0,0,1,.3.25V19.73a.27.27,0,0,1-.3.25H41Z"/><path class="cls-6" d="M37,42.38a.27.27,0,0,1-.3.25H29.06a.25.25,0,1,1,0-.5h7.66A.27.27,0,0,1,37,42.38Z"/><path class="cls-6" d="M34.34,5.67a.28.28,0,0,1,.3.25.28.28,0,0,1-.3.25H11.84a.25.25,0,1,1,0-.5Z"/><path class="cls-6" d="M29.5,8.14a.25.25,0,1,1,0,.5H11.84a.25.25,0,1,1,0-.5Z"/><path class="cls-6" d="M13.7,32.4l-.45,1.38a.32.32,0,0,1-.38.17.24.24,0,0,1-.2-.3l1-3.18,1,3.18a.25.25,0,0,1-.22.3h-.07a.31.31,0,0,1-.3-.18Z"/><path class="cls-6" d="M21.27,11.9,21,19v.37l6.42,5.28a6.68,6.68,0,0,0,2.16-7.14,8.57,8.57,0,0,0-6.5-5.36A9.94,9.94,0,0,0,21.27,11.9ZM11.8,21.42a8.54,8.54,0,0,0,6.5,5.36,11.19,11.19,0,0,0,2.38.26A10.28,10.28,0,0,0,27,25l-6.39-5.27-3.3.43-5.63.74C11.69,21.06,11.73,21.24,11.8,21.42Zm.89-5.74a6.83,6.83,0,0,0-1.14,2.77,6.64,6.64,0,0,0,0,1.94l4.51-.59,4.32-.56.27-7.36h-.23l-.76,0h-.06l-.29,0c-.28,0-.56.08-.84.14l-.23,0a9.75,9.75,0,0,0-1,.29l-.14.05-.11,0c-.25.09-.5.19-.73.3l-.32.15c-.23.11-.43.23-.65.35l-.09,0-.18.12a8.46,8.46,0,0,0-.84.6A8.55,8.55,0,0,0,12.69,15.68Zm5.45,11.58a9.14,9.14,0,0,1-6.94-5.72,7.58,7.58,0,0,1-.21-.82s0,0,0,0a6.69,6.69,0,0,1-.12-1.25,5.66,5.66,0,0,1,.09-1v0h0a7.12,7.12,0,0,1,.77-2.26c.14-.24.28-.47.44-.7a8.64,8.64,0,0,1,1.57-1.69,9.42,9.42,0,0,1,.89-.65l.21-.12.09-.05a5.62,5.62,0,0,1,.69-.38l.32-.16c.27-.12.53-.22.79-.32l.1,0L17,12a11.05,11.05,0,0,1,1.09-.3l.15,0,.1,0a8.68,8.68,0,0,1,.89-.14l.31,0h0c.32,0,.58,0,.86,0h.33a.25.25,0,0,1,.12,0v-.05H21l0,0a11.77,11.77,0,0,1,2.22.25,9.16,9.16,0,0,1,6.94,5.72,7.19,7.19,0,0,1-2.54,7.81,10.91,10.91,0,0,1-6.93,2.37A12,12,0,0,1,18.14,27.26Z"/><path class="cls-6" d="M55.19,49.63l8.32,19.7a2,2,0,0,0,2.43.89l3.08-1a1.85,1.85,0,0,0,1.07-.85,1.25,1.25,0,0,0,0-1.16L60,48.08l-.08,0-4.67,1.5ZM52.8,46.75l.89,1.91a1.07,1.07,0,0,0,1,.53h.09a.84.84,0,0,0,.3,0l4.66-1.5a.63.63,0,0,0,.23-.12.76.76,0,0,0,.37-1l-.9-1.91c-.29.18-.61.32-.92.48l-.54.27a16.27,16.27,0,0,1-1.68.66c-.59.18-1.18.33-1.8.46-.19,0-.4.06-.61.09S53.16,46.71,52.8,46.75Zm-7.22-23.3c-7.41,2.38-11.07,9.27-8.18,15.37a12.61,12.61,0,0,0,5.3,5.46,16.64,16.64,0,0,0,8.12,2.08,15,15,0,0,0,1.51-.07,16.91,16.91,0,0,0,3.72-.73A15.1,15.1,0,0,0,59.37,44c5.21-3.18,7.21-8.87,4.86-13.84A13,13,0,0,0,57.39,24l-.1,0h0v0a17.34,17.34,0,0,0-6.47-1.27A16.76,16.76,0,0,0,45.58,23.45ZM6.63,54.37H56.55l-2-4.7a1.65,1.65,0,0,1-1.44-.83l-1-2c-.44,0-.89.06-1.34.06a17.34,17.34,0,0,1-2.89-.24A15.12,15.12,0,0,1,37.3,39.89l-3.12-.82-2.53,2-5.12-2.46-2.16,7-5.83-.77-4.12,4.82H40.88a.27.27,0,0,1,.3.25.25.25,0,0,1-.18.23l-.12,0H13.4V33.91a.3.3,0,0,1,.6,0V49.24l4.26-5L23.9,45l2.24-7.16,5.42,2.6L34,38.51l2.95.77c0-.09-.09-.19-.14-.28a10.3,10.3,0,0,1,.24-9.46A14,14,0,0,1,45.36,23a18.13,18.13,0,0,1,11.88.38V.5H6.63V54.37ZM6,4.41.63,4.74l4.55,50.2.32,3.52L56,55.36l0-.49H6.32a.27.27,0,0,1-.3-.25ZM4.92,58.75,0,4.53a.28.28,0,0,1,.28-.27L6,3.91V.25A.27.27,0,0,1,6.32,0H57.54a.27.27,0,0,1,.3.25V23.61A13.43,13.43,0,0,1,64.78,30c2.43,5.12.42,11-4.86,14.3l1,2a1.16,1.16,0,0,1-.37,1.4L70.63,67a1.66,1.66,0,0,1,0,1.56,2.36,2.36,0,0,1-1.4,1.12l-3.08,1a3.22,3.22,0,0,1-.93.14,2.45,2.45,0,0,1-2.29-1.34L56.75,54.87h-.22l.06.7c0,.14-.11.26-.28.27L5.24,59h0A.28.28,0,0,1,4.92,58.75Z"/></g></g></svg>