<svg xmlns="http://www.w3.org/2000/svg" viewBox="0 0 94.06 94.06"><defs><style>.cls-1{fill:#fdb857;}.cls-2{fill:#fdd49a;}.cls-3{fill:#0593a1;}.cls-4{fill:#e96b57;}.cls-5{fill:#ff9180;}.cls-6{fill:#5ac6d1;}.cls-7{fill:#1d1d1b;}</style></defs><g id="Layer_2" data-name="Layer 2"><g id="Layer_2-2" data-name="Layer 2"><path class="cls-1" d="M93.49,52.72v4.12H83.64l3.21-4.63a.23.23,0,0,0-.08-.33l-.71-.46.84.07a.28.28,0,0,0,.3-.19l.73-2.64,2.75.62A3.68,3.68,0,0,1,93.49,52.72Z"/><path class="cls-2" d="M87.39,48.49,86.71,51l-1.64-.12a.27.27,0,0,0-.29.16.23.23,0,0,0,.1.29l1.35.85L83,56.84h-1.7l.33-1,1.77-5.27,1.1-3.31Z"/><polygon class="cls-1" points="80.64 51.81 81.05 55.77 80.69 56.84 79.22 56.84 78.85 55.77 78.88 55.52 79.26 51.81 80.64 51.81"/><polygon class="cls-1" points="80.77 50.39 80.65 51.31 79.25 51.31 79.14 50.39 79.54 50.08 79.95 49.76 80.77 50.39"/><path class="cls-3" d="M78.94,92.08v.42a1.05,1.05,0,0,1-.22.66,1,1,0,0,1-.8.4H50.25a1,1,0,0,1-.79-.4,1.07,1.07,0,0,1-.24-.66v-.42Z"/><path class="cls-2" d="M78.3,55.86l.32,1H76.93l-3.25-4.69L75,51.3a.23.23,0,0,0,.1-.29.26.26,0,0,0-.29-.16L73.19,51l-.68-2.48,2.93-1.21,1.1,3.31Z"/><path class="cls-3" d="M78.56,75.75v14a1.07,1.07,0,0,1-1.13,1H50.75a1.07,1.07,0,0,1-1.13-1v-14a1.08,1.08,0,0,1,1.13-1H77.43A1.08,1.08,0,0,1,78.56,75.75Zm-12.23,7a2.26,2.26,0,1,0-2.24,2A2.13,2.13,0,0,0,66.33,82.76Z"/><path class="cls-1" d="M73.05,52.21l3.22,4.63H66.41V52.72a3.69,3.69,0,0,1,2.79-3.44L72,48.66l.73,2.64a.29.29,0,0,0,.3.19l.85-.07-.72.46A.23.23,0,0,0,73.05,52.21Z"/><path class="cls-4" d="M61.18,74.25H50.75a1.61,1.61,0,0,0-1.7,1.5V87.18H36.69V82a.29.29,0,0,0-.29-.25H28.49V79.35a5.17,5.17,0,0,1,4-4.83l9.63-3.45c0,.05,0,.09.05.13a1.28,1.28,0,0,0,.11.24,1.67,1.67,0,0,0,.18.28,1.12,1.12,0,0,0,.18.2,2.09,2.09,0,0,0,.28.24,2.2,2.2,0,0,0,.25.17,3.2,3.2,0,0,0,.37.19,2.09,2.09,0,0,0,.3.14l.44.15.33.1c.17,0,.33.08.52.11l.31.07.61.07a2.36,2.36,0,0,0,.29,0,8.77,8.77,0,0,0,.9,0c.29,0,.6,0,.9,0l.29,0,.6-.07.32-.07.52-.11.32-.1.45-.15.3-.14.37-.19.24-.17a1.61,1.61,0,0,0,.28-.24,1.71,1.71,0,0,0,.18-.2,1.26,1.26,0,0,0,.19-.28l.1-.24a.52.52,0,0,0,.06-.13Z"/><path class="cls-4" d="M60.73,24.27v4.12H50.87l3.21-4.63a.24.24,0,0,0-.07-.34L53.29,23l.85.07a.26.26,0,0,0,.29-.19l.74-2.65,2.75.62A3.7,3.7,0,0,1,60.73,24.27Z"/><path class="cls-1" d="M58.43,51.6a2.24,2.24,0,0,1-.07,3.16.22.22,0,0,0-.07.24,2.86,2.86,0,0,1,.12.82,2.36,2.36,0,0,1-.53,1.55l0,0a.86.86,0,0,0-.07-.1,1.37,1.37,0,0,0-.19-.22l-.09-.09a1.14,1.14,0,0,0-.23-.15l-.1-.05a1.1,1.1,0,0,0-.35-.11h0a1.65,1.65,0,0,0-.47,0,1.44,1.44,0,0,0-.24.09s0,0-.09.07h-.32V53.7a3.09,3.09,0,0,0-.32-1.32s-.05-.07-.08-.1l-.2-.13-.13-.09-.21-.13-.13-.07-.17-.1-.23-.12-.13-.06-.1,0-.32-.13-.18-.06-.34-.11-.12,0-.07.24,0-.26-.32-.07-.17,0-.34,0H51.9a1.92,1.92,0,0,0-.35,0h-.16l-.34,0H50.9l-.35.05-.15,0-.34.07-.15,0-.4.11-.08,0-.37.11-.12,0-.36.12a.54.54,0,0,1-.11.05l-.39.14-.08,0-1,.38a13.16,13.16,0,0,1-5,1.3A7.19,7.19,0,0,1,39.22,53,.31.31,0,0,0,39,53a.23.23,0,0,0-.15.18,3.17,3.17,0,0,0-.07.56l0,3.08h-.35s-.06-.05-.1-.06a1.17,1.17,0,0,0-.49-.12h-.19a.88.88,0,0,0-.23.07,1.56,1.56,0,0,0-.63.46,1.94,1.94,0,0,1-.56-1.33,1.73,1.73,0,0,1,.31-1,.22.22,0,0,0-.07-.33,1.63,1.63,0,0,1-.68-1.35,1.68,1.68,0,0,1,.48-1.2.2.2,0,0,0,.06-.25,2,2,0,0,1-.16-.79,1.69,1.69,0,0,1,1.09-1.67.26.26,0,0,0,.2-.28,1.88,1.88,0,0,1,1.07-2.26,1.73,1.73,0,0,1,1,0,.3.3,0,0,0,.35-.16,2.83,2.83,0,0,1,2.71-1.68h.23a.3.3,0,0,0,.28-.15A3.83,3.83,0,0,1,46.6,43a4.23,4.23,0,0,1,3.12,1.22.31.31,0,0,0,.34.07,3.09,3.09,0,0,1,4,1.3.26.26,0,0,0,.16.15.33.33,0,0,0,.24,0,1.55,1.55,0,0,1,.69-.16,2.24,2.24,0,0,1,2,2.46.26.26,0,0,0,.21.24,1.93,1.93,0,0,1,1.31,2,2.33,2.33,0,0,1-.29,1.14A.22.22,0,0,0,58.43,51.6Z"/><path class="cls-1" d="M55.61,57.28h.27c-.11,1.29-.34,3.32-.44,4.24,0,.28-.06.46-.06.46a10,10,0,0,1-1.54,3.76c-.74,1-1.39,1.78-2,2.39a4.74,4.74,0,0,1-1.61,1.14,4.91,4.91,0,0,1-1.43.36h0a13.53,13.53,0,0,1-1.57.07h-.08a13.87,13.87,0,0,1-1.57-.07,7.62,7.62,0,0,1-.9-.16,4.51,4.51,0,0,1-2.15-1.34,29.35,29.35,0,0,1-2-2.39A10.09,10.09,0,0,1,39,62l0-.18c-.05-.68-.28-3-.39-4.55h.22l0,.16a34.52,34.52,0,0,0,.74,4.7,3.9,3.9,0,0,0,3.12,2.23,1.85,1.85,0,0,0,.9-.23,8.37,8.37,0,0,1,3.53-.93h.1a8.37,8.37,0,0,1,3.56.93,1.89,1.89,0,0,0,.91.23,3.92,3.92,0,0,0,3.11-2.23A31.82,31.82,0,0,0,55.61,57.28Zm-5.67,7.8a1.28,1.28,0,0,0-1.4-1.1H45.85a1.13,1.13,0,1,0,0,2.2h2.69A1.28,1.28,0,0,0,49.94,65.08Z"/><path class="cls-5" d="M54.63,20l-.69,2.48-1.63-.13a.29.29,0,0,0-.29.17.23.23,0,0,0,.1.29l1.34.84-3.25,4.7h-1.7l.33-1,1.76-5.27,1.1-3.31Z"/><path class="cls-1" d="M52.69,2.19a4.24,4.24,0,0,1,1.39,3.24l-.19,2.21,0,0a1.21,1.21,0,0,0-.44.15V5.59A2.67,2.67,0,0,0,50.6,3.1H43.76A2.67,2.67,0,0,0,41,5.59V7.81a1.16,1.16,0,0,0-.43-.15l-.05,0-.19-2.2a4.29,4.29,0,0,1,1.4-3.25C43.05.91,44.38.5,47.19.5S51.33.91,52.69,2.19Z"/><polygon class="cls-4" points="47.88 23.35 48.28 27.32 47.92 28.39 46.44 28.39 46.09 27.31 46.11 27.07 46.49 23.35 47.88 23.35"/><polygon class="cls-4" points="48 21.93 47.89 22.85 46.49 22.85 46.37 21.93 46.97 21.47 47.19 21.31 47.54 21.58 48 21.93"/><path class="cls-5" d="M45.53,27.41l.32,1H44.17l-3.26-4.7,1.34-.84a.23.23,0,0,0,.1-.29.27.27,0,0,0-.28-.17l-1.64.13L39.74,20l2.93-1.21,1.1,3.31Z"/><path class="cls-4" d="M40.29,23.76l3.21,4.63H33.63V24.27a3.68,3.68,0,0,1,2.81-3.44l2.77-.63.72,2.65a.29.29,0,0,0,.31.19l.84-.07-.71.45A.24.24,0,0,0,40.29,23.76Z"/><path class="cls-3" d="M27.66,52.72v4.12H17.79L21,52.21a.25.25,0,0,0-.08-.33l-.71-.46.84.07a.28.28,0,0,0,.3-.19l.73-2.64,2.75.62A3.68,3.68,0,0,1,27.66,52.72Z"/><path class="cls-6" d="M21.56,48.49,20.87,51l-1.63-.12A.27.27,0,0,0,19,51a.23.23,0,0,0,.1.29l1.34.85-3.25,4.69h-1.7l.33-1,1.76-5.27,1.1-3.31Z"/><polygon class="cls-3" points="14.81 51.81 15.22 55.77 14.86 56.84 13.37 56.84 13.02 55.77 13.05 55.52 13.42 51.81 14.81 51.81"/><polygon class="cls-3" points="14.93 50.39 14.82 51.31 13.42 51.31 13.31 50.39 13.97 49.88 14.12 49.76 14.53 50.08 14.93 50.39"/><path class="cls-6" d="M12.5,56l.29.85H11.1L7.85,52.15l1.33-.85a.22.22,0,0,0,.1-.29A.25.25,0,0,0,9,50.85L7.36,51l-.69-2.48L9.6,47.28l1.11,3.31,1.75,5.27h0Z"/><path class="cls-3" d="M7.22,52.21l3.21,4.63H.57V52.72a3.68,3.68,0,0,1,2.8-3.44l2.77-.62.72,2.64a.31.31,0,0,0,.31.19L8,51.42l-.72.46A.23.23,0,0,0,7.22,52.21Z"/><path class="cls-4" d="M76.54,31.55A2.68,2.68,0,0,0,73.71,34v2.22a1.38,1.38,0,0,0-.43-.15l0,0-.19-2.2a4.23,4.23,0,0,1,1.4-3.24C75.81,29.36,77.15,29,80,29s4.13.41,5.5,1.7a4.21,4.21,0,0,1,1.39,3.23l-.18,2.21,0,0a1.38,1.38,0,0,0-.43.15V34a2.67,2.67,0,0,0-2.82-2.49Z"/><path class="cls-6" d="M7.21,33.89a4.3,4.3,0,0,1,1.4-3.24C10,29.36,11.32,29,14.12,29s4.14.41,5.49,1.7A4.23,4.23,0,0,1,21,33.88l-.2,2.21,0,0a1.53,1.53,0,0,0-.44.15V34a2.67,2.67,0,0,0-2.82-2.49H10.69A2.68,2.68,0,0,0,7.88,34v2.22a1.38,1.38,0,0,0-.43-.15l0,0Z"/><path class="cls-7" d="M81,58c-.1.32-.22.64-.33,1a.27.27,0,0,1-.27.18h-.08a.25.25,0,0,1-.19-.32l.33-1a.29.29,0,0,1,.35-.17A.26.26,0,0,1,81,58Z"/><path class="cls-7" d="M80.24,60c-.27.68-.57,1.35-.9,2a.29.29,0,0,1-.26.15l-.11,0a.23.23,0,0,1-.14-.32c.32-.65.61-1.31.88-2a.31.31,0,0,1,.37-.15A.24.24,0,0,1,80.24,60Z"/><path class="cls-7" d="M77.2,64.62c.4-.61.77-1.24,1.12-1.88a.31.31,0,0,1,.38-.11.23.23,0,0,1,.13.33c-.35.64-.73,1.28-1.13,1.9a.31.31,0,0,1-.25.13.28.28,0,0,1-.13,0A.24.24,0,0,1,77.2,64.62Z"/><path class="cls-7" d="M77,65.44a.25.25,0,0,1,.09.35c-.43.6-.88,1.2-1.36,1.78a.27.27,0,0,1-.22.11.34.34,0,0,1-.17-.05.23.23,0,0,1-.06-.35c.46-.57.91-1.16,1.32-1.76A.33.33,0,0,1,77,65.44Z"/><path class="cls-7" d="M75,68.43c-.5.57-1,1.12-1.55,1.66a.34.34,0,0,1-.21.08.36.36,0,0,1-.2-.06.25.25,0,0,1,0-.36c.53-.52,1-1.07,1.53-1.62a.31.31,0,0,1,.39,0A.23.23,0,0,1,75,68.43Z"/><path class="cls-7" d="M72.63,70.88c-.56.51-1.15,1-1.75,1.5a.26.26,0,0,1-.19.07.32.32,0,0,1-.2-.08.25.25,0,0,1,0-.36c.59-.47,1.16-1,1.72-1.48a.3.3,0,0,1,.39,0A.23.23,0,0,1,72.63,70.88Z"/><path class="cls-7" d="M69.61,72.71a.32.32,0,0,1,.39,0,.24.24,0,0,1,0,.36l-.87.64a.45.45,0,0,1-.18.05.33.33,0,0,1-.23-.09.24.24,0,0,1,0-.35Z"/><path class="cls-7" d="M86.85,52.21l-3.21,4.63h9.85V52.72a3.68,3.68,0,0,0-2.81-3.44l-2.75-.62L87.2,51.3a.28.28,0,0,1-.3.19l-.84-.07.71.46A.23.23,0,0,1,86.85,52.21Zm-3.48-1.62L81.6,55.86l-.33,1H83l3.26-4.69-1.35-.85a.23.23,0,0,1-.1-.29.27.27,0,0,1,.29-.16l1.64.12.68-2.48-2.92-1.21Zm-1.24.84-.84-.65-.11.78.3,2.9,1-3a.26.26,0,0,1-.15,0h0A.35.35,0,0,1,82.13,51.43Zm1.4-4.67-3.16,2.67,1.93,1.46.55-.5.56-1.72L84,47Zm-4.68,9,.37,1.07h1.47l.36-1.07-.41-4H79.26l-.38,3.71Zm.69-5.69-.4.31.11.92h1.4l.11-.92L80,49.76Zm-2,1.4a.27.27,0,0,1-.16,0l1,3,.3-2.9-.1-.78-.85.65a.35.35,0,0,1-.18.06h0ZM75.94,47l1.13,3.36.53.5,1.05-.8,0,0,.83-.63-3.16-2.67Zm.74-1.74v1L80,49.09l.17-.15,3.1-2.61v-1l-.15.11-.11.08a3.37,3.37,0,0,1-.32.19l0,0-.39.16-.11,0-.3.08-.16,0-.32,0-.18,0-.37,0-.18,0H79.35l-.26,0-.29,0-.25,0-.25,0-.21,0-.24-.06-.18-.06a1.94,1.94,0,0,1-.36-.15.29.29,0,0,1-.08,0l-.29-.17-.11-.08ZM74.45,30.65a4.23,4.23,0,0,0-1.4,3.24l.19,2.2,0,0a1.38,1.38,0,0,1,.43.15V34a2.68,2.68,0,0,1,2.83-2.49h6.83A2.67,2.67,0,0,1,86.19,34v2.22a1.38,1.38,0,0,1,.43-.15l0,0,.18-2.21a4.21,4.21,0,0,0-1.39-3.23C84.09,29.36,82.75,29,80,29S75.81,29.36,74.45,30.65ZM72.51,48.49,73.19,51l1.64-.12a.26.26,0,0,1,.29.16.23.23,0,0,1-.1.29l-1.34.85,3.25,4.69h1.69l-.32-1-1.76-5.27-1.1-3.31Zm.58-11.91c-.16,0-.23.06-.28.14a2.19,2.19,0,0,0-.13,1.66c.11.66.3,1.35.71,1.49l.17,0h.11l.1,0a.28.28,0,0,1,.13,0,.25.25,0,0,1,.16.16,7.36,7.36,0,0,0,1.12,2.72,20.2,20.2,0,0,0,1.44,1.73c.86.89,1.54,1.12,3.3,1.12s2.5-.23,3.37-1.12c.41-.43.88-1,1.43-1.73a7.36,7.36,0,0,0,1.12-2.72A.25.25,0,0,1,86,39.9a.26.26,0,0,1,.23,0l.07,0a.63.63,0,0,0,.23,0c.38-.13.52-.75.65-1.49a2.38,2.38,0,0,0-.08-1.68.31.31,0,0,0-.2-.11h0a1,1,0,0,0-.74.42.27.27,0,0,1-.12.09h-.19a.26.26,0,0,1-.19-.24V34a2.15,2.15,0,0,0-2.26-2H76.54a2.14,2.14,0,0,0-2.26,2v2.83a.25.25,0,0,1-.2.24.29.29,0,0,1-.31-.1A1,1,0,0,0,73.09,36.58ZM72,48.66l-2.77.62a3.69,3.69,0,0,0-2.79,3.44v4.12h9.86l-3.22-4.63a.23.23,0,0,1,.08-.33l.72-.46-.85.07a.29.29,0,0,1-.3-.19Zm-6.13,4.06A4.21,4.21,0,0,1,69,48.8l3-.69,3.39-1.4.65-.4V44.76a20.6,20.6,0,0,1-1.4-1.7,7.45,7.45,0,0,1-1.16-2.66,1.19,1.19,0,0,1-.37-.06c-.64-.22-.89-.91-1.07-1.88a2.85,2.85,0,0,1,.22-2,.92.92,0,0,1,.34-.24l-.19-2.26A4.73,4.73,0,0,1,74,30.3c1.47-1.38,3-1.85,5.9-1.85s4.45.47,5.92,1.85a4.72,4.72,0,0,1,1.55,3.61l-.19,2.27a.82.82,0,0,1,.32.23,2.63,2.63,0,0,1,.19,2.05c-.17.93-.35,1.66-1,1.88a1.09,1.09,0,0,1-.36.06,7.64,7.64,0,0,1-1.15,2.66c-.54.69-1,1.25-1.41,1.7v1.55l.65.4,3.39,1.4,3,.69a4.21,4.21,0,0,1,3.22,3.92v4.37a.26.26,0,0,1-.28.25H66.12a.27.27,0,0,1-.28-.25Z"/><path class="cls-7" d="M64.09,81.28a1.49,1.49,0,1,0,1.67,1.48A1.58,1.58,0,0,0,64.09,81.28Zm-2.24,1.48a2.26,2.26,0,1,1,2.24,2A2.13,2.13,0,0,1,61.85,82.76Z"/><path class="cls-7" d="M78.94,92.08H49.22v.42a1.07,1.07,0,0,0,.24.66,1,1,0,0,0,.79.4H77.92a1,1,0,0,0,.8-.4,1.05,1.05,0,0,0,.22-.66Zm-30-.5H79.23a.26.26,0,0,1,.28.25v.67a1.48,1.48,0,0,1-.33.94,1.57,1.57,0,0,1-1.26.62H50.25A1.58,1.58,0,0,1,49,93.44a1.54,1.54,0,0,1-.33-.94v-.67a.25.25,0,0,1,.08-.18A.29.29,0,0,1,48.94,91.58Z"/><path class="cls-7" d="M47.44,40.81v1a.27.27,0,0,1-.29.24.27.27,0,0,1-.28-.24v-1a.29.29,0,0,1,.57,0Z"/><path class="cls-7" d="M47.44,37.67v2.09a.27.27,0,0,1-.29.25.27.27,0,0,1-.28-.25V37.67a.28.28,0,0,1,.28-.25A.28.28,0,0,1,47.44,37.67Z"/><path class="cls-7" d="M47.44,34.54v2.09a.27.27,0,0,1-.29.25.27.27,0,0,1-.28-.25V34.54a.27.27,0,0,1,.28-.25A.27.27,0,0,1,47.44,34.54Z"/><path class="cls-7" d="M47.44,31.41V33.5a.27.27,0,0,1-.29.25.27.27,0,0,1-.28-.25V31.41a.27.27,0,0,1,.28-.25A.27.27,0,0,1,47.44,31.41Z"/><path class="cls-7" d="M47.44,30.37a.27.27,0,0,1-.29.25.27.27,0,0,1-.28-.25v-1a.27.27,0,0,1,.28-.25.27.27,0,0,1,.29.25Z"/><path class="cls-7" d="M45.85,64.48c-.46,0-.82.27-.82.6s.36.6.82.6h2.69c.46,0,.83-.27.83-.6s-.37-.6-.83-.6Zm-1.39.6A1.27,1.27,0,0,1,45.85,64h2.69a1.13,1.13,0,1,1,0,2.2H45.85A1.27,1.27,0,0,1,44.46,65.08Z"/><path class="cls-7" d="M54.08,23.76l-3.21,4.63h9.86V24.27a3.7,3.7,0,0,0-2.81-3.45l-2.75-.62-.74,2.65a.26.26,0,0,1-.29.19L53.29,23l.72.45A.24.24,0,0,1,54.08,23.76Zm-5.24,3.65-.33,1h1.7l3.25-4.7-1.34-.84a.23.23,0,0,1-.1-.29.29.29,0,0,1,.29-.17l1.63.13L54.63,20,51.7,18.83l-1.1,3.31Zm-.32-5.08-.1.78.29,2.9,1-3a.22.22,0,0,1-.15,0h0a.3.3,0,0,1-.18-.06Zm2.24-4L47.61,21l.64.5.23.17,1.06.8.53-.5.58-1.72.54-1.64ZM47,21.47l-.6.46.12.92h1.4l.11-.92-.46-.35-.35-.27Zm-.88,5.84.35,1.08h1.48l.36-1.07-.4-4H46.49l-.38,3.72ZM44.64,23l1,3,.29-2.91-.09-.77L45,23a.35.35,0,0,1-.18.06h0A.31.31,0,0,1,44.64,23Zm-.72-6.15v1L47,20.49l.17.15.17-.15,3.1-2.61v-1l-.14.1L50.2,17l-.3.17,0,0a2.62,2.62,0,0,1-.39.15l-.12.05-.3.08-.17,0-.3.05-.18,0-.38,0h-.18l-.61,0h-.89l-.29,0-.25,0-.25,0-.22,0-.25-.07-.17-.05a2.75,2.75,0,0,1-.36-.15l-.09,0L44.18,17l-.12-.09Zm-.75,1.74,1.12,3.36.55.5,1-.8.78-.6.1-.07L43.6,18.31ZM41.68,2.19a4.29,4.29,0,0,0-1.4,3.25l.19,2.2.05,0a1.16,1.16,0,0,1,.43.15V5.59A2.67,2.67,0,0,1,43.76,3.1H50.6a2.67,2.67,0,0,1,2.82,2.49V7.81a1.21,1.21,0,0,1,.44-.15l0,0,.19-2.21a4.24,4.24,0,0,0-1.39-3.24C51.33.91,50,.5,47.19.5S43.05.91,41.68,2.19ZM40.31,8.13c-.45.06-.58.78-.39,1.8.11.66.29,1.35.71,1.49a.51.51,0,0,0,.17,0l.1,0H41a.29.29,0,0,1,.14,0,.24.24,0,0,1,.15.16,7.39,7.39,0,0,0,1.13,2.71c.53.69,1,1.3,1.42,1.74.87.89,1.55,1.12,3.31,1.12s2.5-.23,3.37-1.12A18.33,18.33,0,0,0,52,14.32a7.39,7.39,0,0,0,1.13-2.71.31.31,0,0,1,.13-.17.37.37,0,0,1,.23,0l0,.26,0-.23a.54.54,0,0,0,.22,0c.39-.13.54-.75.67-1.49a3.61,3.61,0,0,0,.06-1.32c-.08-.44-.29-.46-.34-.47a.87.87,0,0,0-.75.42.3.3,0,0,1-.31.1.25.25,0,0,1-.21-.24V5.59a2.13,2.13,0,0,0-2.25-2H43.76a2.13,2.13,0,0,0-2.25,2V8.42a.26.26,0,0,1-.19.24h-.19A.25.25,0,0,1,41,8.56,1,1,0,0,0,40.31,8.13ZM39.74,20l.69,2.48,1.64-.13a.27.27,0,0,1,.28.17.23.23,0,0,1-.1.29l-1.34.84,3.26,4.7h1.68l-.32-1-1.76-5.27-1.1-3.31Zm.19,2.81-.72-2.65-2.77.63a3.68,3.68,0,0,0-2.81,3.44v4.12H43.5l-3.21-4.63a.24.24,0,0,1,.08-.34l.71-.45-.84.07A.29.29,0,0,1,39.93,22.85ZM61.3,24.27v4.37a.27.27,0,0,1-.29.25H33.35a.26.26,0,0,1-.28-.25V24.27a4.21,4.21,0,0,1,3.21-3.92l3-.69,3.38-1.4.66-.41V16.31c-.43-.45-.9-1-1.41-1.7A7.28,7.28,0,0,1,40.8,12a1.19,1.19,0,0,1-.37-.06c-.65-.22-.9-.91-1.08-1.88-.22-1.23,0-2,.56-2.29l-.19-2.25a4.72,4.72,0,0,1,1.56-3.62C42.75.47,44.24,0,47.18,0s4.44.47,5.92,1.85a4.71,4.71,0,0,1,1.55,3.61l-.19,2.26a1,1,0,0,1,.56.81A4.25,4.25,0,0,1,55,10c-.17.93-.36,1.65-1,1.88a1.13,1.13,0,0,1-.36.06,7.63,7.63,0,0,1-1.16,2.66c-.54.69-1,1.25-1.4,1.69v1.55l.65.41,3.39,1.4,3,.69A4.21,4.21,0,0,1,61.3,24.27Z"/><path class="cls-7" d="M36.12,82.23H28.49v5h7.63ZM56.47,57.12c-.11,1.27-.36,3.48-.47,4.45,0,.1,0,.17,0,.25a.8.8,0,0,0,.26,0,2.75,2.75,0,0,0,1.42-2.13,3.33,3.33,0,0,0-.13-1.77,1.4,1.4,0,0,0-.15-.3.43.43,0,0,0,0-.07,1.22,1.22,0,0,0-.15-.17l-.07-.06a.57.57,0,0,0-.13-.1l-.1,0-.14,0h0a1,1,0,0,0-.25,0Zm-8-.37v1.36a1.81,1.81,0,0,0,1.9,1.69h.93a1.9,1.9,0,0,0,2-1.78V56.81A.33.33,0,0,0,53,56.5H48.77A.26.26,0,0,0,48.5,56.75Zm-5.9,14c0,1,1.3,1.63,2.92,1.89a10.21,10.21,0,0,0,1.68.13c2.28,0,4.59-.69,4.59-2V68.93l-.07,0a5.23,5.23,0,0,1-.55.41h0a4.28,4.28,0,0,1-.6.31l-.13.05a4.36,4.36,0,0,1-.64.21l-.14,0a7.59,7.59,0,0,1-.76.12,12.94,12.94,0,0,1-1.66.08,13.12,13.12,0,0,1-1.7-.08,6,6,0,0,1-.93-.16l-.27-.08a5.2,5.2,0,0,1-.55-.21l-.28-.14a4.66,4.66,0,0,1-.47-.3,2.48,2.48,0,0,1-.26-.19l-.16-.11Zm-.47.49s0-.08-.05-.13l-9.63,3.45a5.17,5.17,0,0,0-4,4.83v2.38H36.4a.29.29,0,0,1,.29.25v5.2H49.05V75.75a1.61,1.61,0,0,1,1.7-1.5H61.18l-8.86-3.18a.52.52,0,0,1-.06.13l-.1.24a1.26,1.26,0,0,1-.19.28,1.71,1.71,0,0,1-.18.2,1.61,1.61,0,0,1-.28.24l-.24.17-.37.19-.3.14-.45.15-.32.1-.52.11-.32.07-.6.07-.29,0c-.3,0-.61,0-.9,0a8.77,8.77,0,0,1-.9,0,2.36,2.36,0,0,1-.29,0l-.61-.07L45.09,73c-.19,0-.35-.07-.52-.11l-.33-.1-.44-.15a2.09,2.09,0,0,1-.3-.14,3.2,3.2,0,0,1-.37-.19,2.2,2.2,0,0,1-.25-.17,2.09,2.09,0,0,1-.28-.24,1.12,1.12,0,0,1-.18-.2,1.67,1.67,0,0,1-.18-.28A1.28,1.28,0,0,1,42.13,71.2Zm-.79-14.7a.27.27,0,0,0-.28.25v1.36A1.82,1.82,0,0,0,43,59.8h.93a1.9,1.9,0,0,0,2-1.78V56.81a.33.33,0,0,0-.35-.31Zm.75-2.44a7.83,7.83,0,0,1-2.76-.51.76.76,0,0,0,0,.15l0,3.08H40.5v0a.8.8,0,0,1,.84-.75h4.21a.86.86,0,0,1,.9.78h1.48v0a.8.8,0,0,1,.84-.75H53a.86.86,0,0,1,.9.78h1.21V53.7a2.48,2.48,0,0,0-.24-1.06l-.12-.08-.15-.1a.78.78,0,0,0-.18-.11.53.53,0,0,0-.1-.06l-.18-.1-.21-.11L53.73,52l-.3-.13-.1,0c-.17,0-.27-.09-.38-.11l-.09,0-.06,0-.31-.07h-.16l-.3,0h-.56l-.36,0-.11,0-.34,0-.15,0-.31.06-.14,0-.33.09-.13,0-.34.1-.07,0-.4.14-.22-.19.11.23-.37.14-.19-.2.11.23-.92.36A13.72,13.72,0,0,1,42.09,54.06Zm-2.68,3.33a34.76,34.76,0,0,0,.71,4.6,3.37,3.37,0,0,0,2.58,1.88,1.28,1.28,0,0,0,.61-.15,8.93,8.93,0,0,1,3.83-1h.12a8.87,8.87,0,0,1,3.82,1,1.29,1.29,0,0,0,.62.15A3.4,3.4,0,0,0,54.28,62a33.94,33.94,0,0,0,.77-4.71H53.89V58a2.43,2.43,0,0,1-2.56,2.28H50.4a2.34,2.34,0,0,1-2.47-2.19v-.83H46.46V58A2.43,2.43,0,0,1,43.9,60.3H43a2.34,2.34,0,0,1-2.47-2.19v-.83H39.39ZM38,57.14c-.24-.11-.58,0-.9.5a1.19,1.19,0,0,0-.13.25,3.16,3.16,0,0,0-.11,1.77,2.74,2.74,0,0,0,1.41,2.13h.14C38.35,61,38.13,58.62,38,57.14Zm.58.14c.11,1.53.34,3.87.39,4.55L39,62a10.09,10.09,0,0,0,1.55,3.73,29.35,29.35,0,0,0,2,2.39,4.51,4.51,0,0,0,2.15,1.34,7.62,7.62,0,0,0,.9.16,13.87,13.87,0,0,0,1.57.07h.08a13.53,13.53,0,0,0,1.57-.07h0a4.91,4.91,0,0,0,1.43-.36,4.74,4.74,0,0,0,1.61-1.14c.59-.61,1.24-1.44,2-2.39A10,10,0,0,0,55.38,62s0-.18.06-.46c.1-.92.33-3,.44-4.24h-.27a31.82,31.82,0,0,1-.8,4.86,3.92,3.92,0,0,1-3.11,2.23,1.89,1.89,0,0,1-.91-.23,8.37,8.37,0,0,0-3.56-.93h-.1a8.37,8.37,0,0,0-3.53.93,1.85,1.85,0,0,1-.9.23,3.9,3.9,0,0,1-3.12-2.23,34.52,34.52,0,0,1-.74-4.7l0-.16Zm-.75-.68a1.17,1.17,0,0,1,.49.12s.06,0,.1.06h.35l0-3.08a3.17,3.17,0,0,1,.07-.56A.23.23,0,0,1,39,53a.31.31,0,0,1,.25,0,7.19,7.19,0,0,0,2.87.61,13.16,13.16,0,0,0,5-1.3l1-.38.08,0,.39-.14a.54.54,0,0,0,.11-.05l.36-.12.12,0,.37-.11.08,0,.4-.11.15,0,.34-.07.15,0,.35-.05h.15l.34,0h.16a1.92,1.92,0,0,1,.35,0h.18l.34,0,.17,0,.32.07,0,.26.07-.24.12,0,.34.11.18.06.32.13.1,0,.13.06.23.12.17.1.13.07.21.13.13.09.2.13s.07.06.08.1a3.09,3.09,0,0,1,.32,1.32v3.08H56s.06-.06.09-.07a1.44,1.44,0,0,1,.24-.09,1.65,1.65,0,0,1,.47,0h0a1.1,1.1,0,0,1,.35.11l.1.05a1.14,1.14,0,0,1,.23.15l.09.09a1.37,1.37,0,0,1,.19.22.86.86,0,0,1,.07.1l0,0a2.36,2.36,0,0,0,.53-1.55,2.86,2.86,0,0,0-.12-.82.22.22,0,0,1,.07-.24,2.24,2.24,0,0,0,.07-3.16.22.22,0,0,1,0-.28,2.33,2.33,0,0,0,.29-1.14,1.93,1.93,0,0,0-1.31-2,.26.26,0,0,1-.21-.24,2.24,2.24,0,0,0-2-2.46,1.55,1.55,0,0,0-.69.16.33.33,0,0,1-.24,0,.26.26,0,0,1-.16-.15,3.09,3.09,0,0,0-4-1.3.31.31,0,0,1-.34-.07A4.23,4.23,0,0,0,46.6,43a3.83,3.83,0,0,0-3.48,1.77.3.3,0,0,1-.28.15h-.23a2.83,2.83,0,0,0-2.71,1.68.3.3,0,0,1-.35.16,1.73,1.73,0,0,0-1,0A1.88,1.88,0,0,0,37.47,49a.26.26,0,0,1-.2.28,1.69,1.69,0,0,0-1.09,1.67,2,2,0,0,0,.16.79.2.2,0,0,1-.06.25,1.68,1.68,0,0,0-.48,1.2,1.63,1.63,0,0,0,.68,1.35.22.22,0,0,1,.07.33,1.73,1.73,0,0,0-.31,1,1.94,1.94,0,0,0,.56,1.33,1.56,1.56,0,0,1,.63-.46.88.88,0,0,1,.23-.07h.19ZM77.43,74.75H50.75a1.08,1.08,0,0,0-1.13,1v14a1.07,1.07,0,0,0,1.13,1H77.43a1.07,1.07,0,0,0,1.13-1v-14A1.08,1.08,0,0,0,77.43,74.75Zm-14.75-.5H77.43a1.61,1.61,0,0,1,1.7,1.5v14a1.61,1.61,0,0,1-1.7,1.5H50.75a1.61,1.61,0,0,1-1.7-1.5V87.68H28.21a.27.27,0,0,1-.29-.25V79.35a5.69,5.69,0,0,1,4.33-5.3L42,70.54V68.38C41.45,67.76,40.81,67,40.1,66a10.14,10.14,0,0,1-1.58-3.69,1.22,1.22,0,0,1-.43-.08,3.21,3.21,0,0,1-1.78-2.51,3.63,3.63,0,0,1,.15-2,.91.91,0,0,1,.07-.14,2.37,2.37,0,0,1-.85-1.77A2.14,2.14,0,0,1,36,54.76a2.12,2.12,0,0,1-.71-1.61,2.1,2.1,0,0,1,.52-1.41,2.39,2.39,0,0,1-.15-.83,2.21,2.21,0,0,1,1.27-2.07,2.32,2.32,0,0,1,1.46-2.6,2.2,2.2,0,0,1,1.12-.08,3.45,3.45,0,0,1,3.15-1.8h.08a4.53,4.53,0,0,1,3.91-1.9A4.89,4.89,0,0,1,50,43.72a3.67,3.67,0,0,1,1.38-.26,3.52,3.52,0,0,1,3.1,1.67,2.29,2.29,0,0,1,.68-.1,2.71,2.71,0,0,1,2.54,2.78,2.48,2.48,0,0,1,1.53,2.37A2.78,2.78,0,0,1,59,51.39a2.72,2.72,0,0,1-.1,3.62,2.78,2.78,0,0,1,.11.81,2.73,2.73,0,0,1-.87,2.06,3.83,3.83,0,0,1,.09,1.86,3.24,3.24,0,0,1-1.76,2.52,1.6,1.6,0,0,1-.47.08h-.1A10.42,10.42,0,0,1,54.3,66a29.61,29.61,0,0,1-1.95,2.36v2.16l9.81,3.52a3.78,3.78,0,0,1,.46.17Z"/><path class="cls-7" d="M28.39,75.69l-.95-.56a.22.22,0,0,1-.07-.34.31.31,0,0,1,.4-.07c.3.19.61.37.92.55a.23.23,0,0,1,.09.34.27.27,0,0,1-.23.12A.42.42,0,0,1,28.39,75.69Z"/><path class="cls-7" d="M24.92,72.81c.61.46,1.24.9,1.87,1.3a.23.23,0,0,1,.06.35.3.3,0,0,1-.23.11.41.41,0,0,1-.17,0c-.64-.42-1.27-.86-1.89-1.33a.22.22,0,0,1,0-.35A.32.32,0,0,1,24.92,72.81Z"/><path class="cls-7" d="M22.31,70.65c.55.51,1.13,1,1.71,1.47a.22.22,0,0,1,0,.35.28.28,0,0,1-.21.08.33.33,0,0,1-.19-.06c-.6-.48-1.18-1-1.74-1.49a.23.23,0,0,1,0-.35A.3.3,0,0,1,22.31,70.65Z"/><path class="cls-7" d="M21.07,70.22c-.53-.53-1.06-1.09-1.56-1.64a.25.25,0,0,1,.06-.36.32.32,0,0,1,.4,0c.48.55,1,1.09,1.52,1.61a.22.22,0,0,1,0,.35.24.24,0,0,1-.18.07A.35.35,0,0,1,21.07,70.22Z"/><path class="cls-7" d="M17.91,65.68c.43.6.87,1.18,1.33,1.75a.23.23,0,0,1,0,.35.38.38,0,0,1-.17,0,.29.29,0,0,1-.23-.1c-.48-.57-.93-1.17-1.36-1.77a.24.24,0,0,1,.09-.35A.31.31,0,0,1,17.91,65.68Z"/><path class="cls-7" d="M16.8,65c-.41-.62-.79-1.26-1.14-1.89a.23.23,0,0,1,.13-.33.31.31,0,0,1,.38.11c.35.62.72,1.25,1.13,1.86a.23.23,0,0,1-.1.34l-.15,0A.3.3,0,0,1,16.8,65Z"/><path class="cls-7" d="M15.15,62.17c-.34-.65-.65-1.32-.92-2a.24.24,0,0,1,.16-.32.28.28,0,0,1,.36.15c.27.65.58,1.31.91,1.95a.24.24,0,0,1-.14.33l-.12,0A.26.26,0,0,1,15.15,62.17Z"/><path class="cls-7" d="M13.83,59.17c-.13-.32-.24-.64-.34-1a.24.24,0,0,1,.19-.31.29.29,0,0,1,.35.17c.1.32.21.64.33.95a.24.24,0,0,1-.18.32H14.1A.27.27,0,0,1,13.83,59.17Z"/><path class="cls-7" d="M17.79,56.84h9.87V52.72a3.68,3.68,0,0,0-2.81-3.44l-2.75-.62-.73,2.64a.28.28,0,0,1-.3.19l-.84-.07.71.46a.25.25,0,0,1,.08.33Zm-.26-6.25-1.76,5.27-.33,1h1.7l3.25-4.69-1.34-.85A.23.23,0,0,1,19,51a.27.27,0,0,1,.29-.16l1.63.12.69-2.48-2.93-1.21Zm-2.08.19-.1.78.3,2.9.23-.69.77-2.33a.21.21,0,0,1-.14,0h0a.32.32,0,0,1-.18-.06Zm2.24-4-3.15,2.67.84.63,0,0,1.06.8.53-.5L18.12,47Zm-3.57,3-.15.12-.66.51.11.92h1.4l.11-.92-.4-.31Zm-.7,2.05-.37,3.71,0,.25.35,1.07h1.49l.36-1.07-.41-4Zm-.63-1-.85.65a.35.35,0,0,1-.18.06h0a.23.23,0,0,1-.14,0l1,3,.3-2.9Zm.9-1.35-3.15-2.67-.43.27,1.12,3.36.54.5,1.05-.8.52-.39Zm-2.85-4.14v1l3.1,2.61.18.15.17-.15,3.1-2.61v-1l-.15.1-.11.09a2,2,0,0,1-.32.18l0,0-.39.16-.12,0L16,46l-.15,0-.32,0-.18,0-.37,0-.19,0H13.52l-.26,0-.29,0-.25,0-.25,0-.22,0L12,45.9l-.17-.06a3,3,0,0,1-.38-.15l-.08,0-.27-.16L11,45.39ZM7.88,34a2.68,2.68,0,0,1,2.81-2.49h6.84A2.67,2.67,0,0,1,20.35,34v2.22a1.53,1.53,0,0,1,.44-.15l0,0,.2-2.21a4.23,4.23,0,0,0-1.41-3.23c-1.35-1.29-2.7-1.7-5.49-1.7s-4.14.41-5.51,1.7a4.3,4.3,0,0,0-1.4,3.24l.19,2.2,0,0a1.38,1.38,0,0,1,.43.15ZM6.67,48.49,7.36,51,9,50.85a.25.25,0,0,1,.28.16.22.22,0,0,1-.1.29l-1.33.85,3.25,4.69h1.69L12.5,56l0-.12h0l-1.75-5.27L9.6,47.28ZM7.94,37a1,1,0,0,0-.68-.43c-.25,0-.38.2-.44.49a3.25,3.25,0,0,0,0,1.31c.11.66.29,1.35.71,1.49l.17,0h.1l.11,0a.28.28,0,0,1,.13,0,.24.24,0,0,1,.15.16,7.52,7.52,0,0,0,1.13,2.72,21.84,21.84,0,0,0,1.42,1.73c.87.89,1.55,1.12,3.32,1.12s2.49-.23,3.37-1.12a20.4,20.4,0,0,0,1.42-1.73A7.28,7.28,0,0,0,20,40.06a.22.22,0,0,1,.14-.16.24.24,0,0,1,.22,0l0,.26.06-.24a.65.65,0,0,0,.22,0c.38-.13.53-.75.66-1.49a3.61,3.61,0,0,0,.06-1.32c-.08-.43-.28-.46-.34-.47h0a1,1,0,0,0-.74.42.29.29,0,0,1-.31.1.25.25,0,0,1-.21-.24V34a2.13,2.13,0,0,0-2.25-2H10.69a2.13,2.13,0,0,0-2.24,2v2.83a.25.25,0,0,1-.2.24H8.06A.19.19,0,0,1,7.94,37ZM0,52.72A4.21,4.21,0,0,1,3.21,48.8l3-.69,3.38-1.4.65-.4V44.76c-.39-.41-.79-.92-1.39-1.7A7.28,7.28,0,0,1,7.73,40.4a1.19,1.19,0,0,1-.37-.06c-.64-.22-.89-.91-1.07-1.88a3.78,3.78,0,0,1,0-1.49,1,1,0,0,1,.58-.8l-.19-2.25A4.77,4.77,0,0,1,8.21,30.3c1.47-1.38,3-1.85,5.9-1.85s4.44.47,5.92,1.85a4.72,4.72,0,0,1,1.55,3.61l-.19,2.26a1,1,0,0,1,.55.81,4,4,0,0,1-.05,1.48c-.17.93-.35,1.66-1,1.88a1.09,1.09,0,0,1-.36.06,7.63,7.63,0,0,1-1.16,2.66c-.52.67-1,1.25-1.4,1.7v1.55l.65.4L22,48.11l3,.69a4.21,4.21,0,0,1,3.22,3.92v4.37a.27.27,0,0,1-.28.25H.28A.26.26,0,0,1,0,57.09Zm3.37-3.44a3.68,3.68,0,0,0-2.8,3.44v4.12h9.86L7.22,52.21a.23.23,0,0,1,.08-.33L8,51.42l-.85.07a.31.31,0,0,1-.31-.19l-.72-2.64Z"/></g></g></svg>